<svg xmlns="http://www.w3.org/2000/svg" viewBox="0 0 460 120" role="img" aria-labelledby="t d">
  <title id="t">greenheart logo</title>
  <desc id="d">GreenHeart wordmark with heart-leaf icon.</desc>
  <defs>
    <linearGradient id="leaf" x1="0" x2="1" y1="0" y2="1">
      <stop offset="0%" stop-color="#1f7c4d" />
      <stop offset="100%" stop-color="#145737" />
    </linearGradient>
  </defs>
  <g transform="translate(12 12)">
    <path d="M36 8c-9.9 0-18 8.1-18 18 0 14.5 15.3 24.7 18 26.4 2.7-1.7 18-11.9 18-26.4 0-9.9-8.1-18-18-18z" fill="url(#leaf)"/>
    <path d="M36 18c-5.6 0-10.2 4.6-10.2 10.2 0 7.9 8.5 13.9 10.2 15 1.8-1.1 10.2-7.1 10.2-15C46.2 22.6 41.6 18 36 18z" fill="#d7f0df"/>
    <path d="M36 6v46" stroke="#cfb159" stroke-width="3" stroke-linecap="round"/>
  </g>
  <text x="88" y="70" font-size="54" font-family="DM Serif Display, Georgia, serif" fill="#145737">Green</text>
  <text x="236" y="70" font-size="54" font-family="DM Serif Display, Georgia, serif" fill="#cfb159">Heart</text>
</svg>
